<svg width="600" height="300" viewBox="0 0 600 300" fill="none" xmlns="http://www.w3.org/2000/svg">
<g clip-path="url(#clip0)">
<circle cx="153.5" cy="127.5" r="84.5" fill="#103B5C"/>
<rect x="161" y="64" width="345" height="90" rx="19" fill="#103B5C"/>
<path d="M154 192H270C282.703 192 293 181.703 293 169V152H154V192Z" fill="#103B5C"/>
<mask id="path-4-outside-1" maskUnits="userSpaceOnUse" x="61" y="35" width="453" height="185" fill="black">
<rect fill="white" x="61" y="35" width="453" height="185"/>
<path fill-rule="evenodd" clip-rule="evenodd" d="M208.092 192C193.366 204.476 174.312 212 153.5 212C106.832 212 69 174.168 69 127.5C69 80.8319 106.832 43 153.5 43C174.862 43 194.373 50.927 209.251 64H487C497.493 64 506 72.5066 506 83V135C506 145.493 497.493 154 487 154H293V169C293 181.703 282.703 192 270 192H208.092Z"/>
</mask>
<path fill-rule="evenodd" clip-rule="evenodd" d="M208.092 192C193.366 204.476 174.312 212 153.5 212C106.832 212 69 174.168 69 127.5C69 80.8319 106.832 43 153.5 43C174.862 43 194.373 50.927 209.251 64H487C497.493 64 506 72.5066 506 83V135C506 145.493 497.493 154 487 154H293V169C293 181.703 282.703 192 270 192H208.092Z" fill="#103B5C"/>
<path d="M208.092 192V184H205.159L202.921 185.896L208.092 192ZM69 127.5H77H69ZM209.251 64L203.971 70.0097L206.236 72H209.251V64ZM293 154V146H285V154H293ZM202.921 185.896C189.586 197.194 172.348 204 153.5 204V220C176.276 220 197.147 211.758 213.264 198.104L202.921 185.896ZM153.5 204C111.25 204 77 169.75 77 127.5H61C61 178.586 102.414 220 153.5 220V204ZM77 127.5C77 85.2502 111.25 51 153.5 51V35C102.414 35 61 76.4137 61 127.5H77ZM153.5 51C172.845 51 190.496 58.1703 203.971 70.0097L214.532 57.9903C198.25 43.6838 176.879 35 153.5 35V51ZM209.251 72H487V56H209.251V72ZM487 72C493.075 72 498 76.9249 498 83H514C514 68.0883 501.912 56 487 56V72ZM498 83V135H514V83H498ZM498 135C498 141.075 493.075 146 487 146V162C501.912 162 514 149.912 514 135H498ZM487 146H293V162H487V146ZM301 169V154H285V169H301ZM270 200C287.121 200 301 186.121 301 169H285C285 177.284 278.284 184 270 184V200ZM208.092 200H270V184H208.092V200Z" fill="white" mask="url(#path-4-outside-1)"/>
<path d="M224.613 131.552C224.613 133.136 223.893 134 222.453 134H214.389C213.021 134 212.229 133.28 212.229 131.84V125.576C212.229 124.136 211.509 123.416 210.069 123.416H203.877C202.509 123.416 201.717 124.136 201.717 125.576V131.84C201.717 133.28 200.997 134 199.557 134H191.493C190.125 134 189.333 133.136 189.333 131.552V101.024C189.333 91.952 190.773 82.304 206.973 82.304C223.173 82.304 224.613 91.952 224.613 101.024V131.552ZM212.229 101.024C212.229 97.568 211.725 95.84 206.973 95.84C202.221 95.84 201.717 97.568 201.717 101.024V108.872C201.717 110.24 202.509 111.032 203.877 111.032H210.069C211.509 110.96 212.229 110.24 212.229 108.8V101.024ZM233.618 83.6C232.178 83.672 231.458 84.392 231.458 85.832V131.84C231.458 133.208 232.25 134 233.618 134H249.674C263.21 134 267.674 128.456 267.674 116.648V100.88C267.674 89.072 263.21 83.6 249.674 83.6H233.618ZM246.002 121.616C244.634 121.616 243.842 120.824 243.842 119.456V98.144C243.842 96.704 244.634 95.984 246.002 95.984H249.89C253.346 95.984 255.074 96.416 255.074 100.88C255.074 100.952 255.074 116.648 255.074 116.72C255.074 121.04 253.346 121.616 249.89 121.616H246.002ZM275.866 83.6C274.498 83.6 273.706 84.32 273.706 85.76V117.8C273.706 122.552 274.714 135.296 291.778 135.296C308.842 135.296 309.85 122.552 309.85 117.8V85.76C309.85 84.32 309.13 83.6 307.69 83.6H299.626C298.258 83.6 297.466 84.32 297.466 85.76V113.984C297.466 119.528 297.106 122.912 291.778 122.912C286.45 122.912 286.09 119.528 286.09 113.984V85.76C286.09 84.32 285.37 83.6 283.93 83.6H275.866ZM326.831 83.6C328.271 83.6 328.991 84.32 328.991 85.76V119.456C328.991 120.824 329.783 121.616 331.151 121.616H347.207C348.647 121.616 349.367 122.336 349.367 123.776V131.84C349.367 133.28 348.647 134 347.207 134H318.767C317.399 134 316.607 133.208 316.607 131.84V85.76C316.607 84.32 317.399 83.6 318.767 83.6L326.831 83.6ZM353.802 98.144C353.802 96.704 353.082 95.984 351.642 95.984H341.562C340.194 95.984 339.402 95.192 339.402 93.824V85.76C339.402 84.32 340.194 83.6 341.562 83.6H378.426C379.866 83.6 380.586 84.32 380.586 85.76V93.824C380.586 95.192 379.866 95.984 378.426 95.984H368.346C366.978 95.984 366.186 96.704 366.186 98.144V131.84C366.186 133.208 365.466 134 364.026 134H355.962C354.594 134 353.802 133.208 353.802 131.84V98.144ZM394.972 83.6C396.412 83.6 397.132 84.32 397.132 85.76V131.84C397.132 133.208 396.412 134 394.972 134H387.052C385.684 134 384.892 133.208 384.892 131.84V85.76C384.892 84.32 385.684 83.6 387.052 83.6H394.972ZM417.042 83.6C418.266 83.6 419.058 84.104 419.562 85.256L429.354 109.232C429.642 109.88 430.218 109.736 430.218 109.016V85.76C430.218 84.32 431.01 83.6 432.378 83.6H440.442C441.882 83.6 442.602 84.32 442.602 85.76V131.84C442.602 133.208 441.882 134 440.442 134H429.858C428.634 134 427.842 133.496 427.338 132.344L417.546 108.368C417.258 107.72 416.682 107.864 416.682 108.584V131.84C416.682 133.208 415.962 134 414.522 134H406.458C405.09 134 404.298 133.208 404.298 131.84V85.76C404.298 84.32 405.09 83.6 406.458 83.6H417.042ZM449.07 117.8C449.07 122.552 450.078 135.296 467.142 135.296C484.206 135.296 485.214 122.552 485.214 117.8V108.08C485.214 106.64 484.494 105.92 483.054 105.92H468.654C467.286 105.92 466.494 106.64 466.494 108.08V113.84C466.494 115.208 467.286 116 468.654 116H472.83C472.83 119.528 472.47 122.912 467.142 122.912C461.814 122.912 461.454 119.528 461.454 113.984V103.616C461.454 98.072 461.814 94.688 467.142 94.688C471.246 94.688 472.47 96.704 472.758 100.16C472.902 101.672 473.694 102.32 475.134 102.032L483.27 100.232C484.566 99.944 485.214 99.152 485.142 97.856C484.782 92.24 482.262 82.304 467.142 82.304C450.078 82.304 449.07 95.048 449.07 99.8V117.8ZM195.718 164.604C196.578 164.604 197.008 165.034 197.008 165.894V170.71C197.008 171.527 196.578 172 195.718 172H190.902C190.085 172 189.612 171.527 189.612 170.71V165.894C189.612 165.034 190.085 164.604 190.902 164.604H195.718ZM201.536 141.9C200.676 141.943 200.246 142.373 200.246 143.233V170.71C200.246 171.527 200.719 172 201.536 172H211.125C219.209 172 221.875 168.689 221.875 161.637V152.22C221.875 145.168 219.209 141.9 211.125 141.9H201.536ZM208.932 164.604C208.115 164.604 207.642 164.131 207.642 163.314V150.586C207.642 149.726 208.115 149.296 208.932 149.296H211.254C213.318 149.296 214.35 149.554 214.35 152.22C214.35 152.263 214.35 161.637 214.35 161.68C214.35 164.26 213.318 164.604 211.254 164.604H208.932ZM245.085 141.9C245.945 141.9 246.375 142.33 246.375 143.19V148.006C246.375 148.823 245.945 149.296 245.085 149.296H234.679C233.862 149.296 233.389 149.726 233.389 150.586V151.962C233.389 152.779 233.862 153.252 234.679 153.252H241.344C242.204 153.252 242.634 153.682 242.634 154.542V159.358C242.634 160.175 242.204 160.648 241.344 160.648H234.679C233.862 160.648 233.389 161.078 233.389 161.938V163.314C233.389 164.131 233.862 164.604 234.679 164.604H245.085C245.945 164.604 246.375 165.034 246.375 165.894V170.71C246.375 171.57 245.945 172 245.085 172H227.025C226.208 172 225.735 171.527 225.735 170.71V143.19C225.735 142.33 226.208 141.9 227.025 141.9H245.085ZM254.53 141.9C255.304 141.9 255.777 142.287 255.949 143.018L259.733 159.53C259.819 159.917 260.163 159.917 260.249 159.53L264.033 143.018C264.205 142.287 264.678 141.9 265.452 141.9H270.569C271.472 141.9 271.902 142.416 271.687 143.319L265.409 170.882C265.237 171.613 264.764 172 263.99 172H255.992C255.218 172 254.745 171.613 254.573 170.882L248.295 143.319C248.08 142.416 248.51 141.9 249.413 141.9H254.53Z" fill="white"/>
<mask id="mask0" mask-type="alpha" maskUnits="userSpaceOnUse" x="61" y="35" width="185" height="185">
<circle cx="153.5" cy="127.5" r="92.5" fill="#103B5C"/>
</mask>
<g mask="url(#mask0)">
<rect x="129" y="167" width="14" height="137" fill="#D02F95"/>
<rect x="157" y="167" width="14" height="137" fill="#EBEB47"/>
<rect x="143" y="167" width="14" height="137" fill="#2FCAD0"/>
</g>
<path d="M109.56 161H190.44C194.477 161 196.85 156.464 194.547 153.148L176.492 127.148C175.557 125.802 174.023 125 172.385 125H127.615C125.977 125 124.443 125.802 123.508 127.148L105.453 153.148C103.15 156.464 105.523 161 109.56 161Z" fill="#C4C4C4"/>
<g filter="url(#filter0_d)">
<path fill-rule="evenodd" clip-rule="evenodd" d="M150 68C175 68 175 127.611 175 127.611V170C175 172.209 173.209 174 171 174H129C126.791 174 125 172.209 125 170V127.611C125 127.611 125 68 150 68ZM150 118C156.075 118 161 113.075 161 107C161 100.925 156.075 96 150 96C143.925 96 139 100.925 139 107C139 113.075 143.925 118 150 118Z" fill="white"/>
</g>
</g>
<defs>
<filter id="filter0_d" x="121" y="68" width="58" height="114" filterUnits="userSpaceOnUse" color-interpolation-filters="sRGB">
<feFlood flood-opacity="0" result="BackgroundImageFix"/>
<feColorMatrix in="SourceAlpha" type="matrix" values="0 0 0 0 0 0 0 0 0 0 0 0 0 0 0 0 0 0 127 0"/>
<feOffset dy="4"/>
<feGaussianBlur stdDeviation="2"/>
<feColorMatrix type="matrix" values="0 0 0 0 0 0 0 0 0 0 0 0 0 0 0 0 0 0 0.25 0"/>
<feBlend mode="normal" in2="BackgroundImageFix" result="effect1_dropShadow"/>
<feBlend mode="normal" in="SourceGraphic" in2="effect1_dropShadow" result="shape"/>
</filter>
<clipPath id="clip0">
<rect width="600" height="300" fill="white"/>
</clipPath>
</defs>
</svg>
