<svg width="437" height="169" viewBox="0 0 437 169" fill="none" xmlns="http://www.w3.org/2000/svg">
<g clip-path="url(#clip0)">
<circle cx="84.5" cy="84.5" r="84.5" fill="#103B5C"/>
<rect x="92" y="21" width="345" height="90" rx="19" fill="#103B5C"/>
<path d="M85 149H201C213.703 149 224 138.703 224 126V109H85V149Z" fill="#103B5C"/>
<path d="M155.613 88.552C155.613 90.136 154.893 91 153.453 91H145.389C144.021 91 143.229 90.28 143.229 88.84V82.576C143.229 81.136 142.509 80.416 141.069 80.416H134.877C133.509 80.416 132.717 81.136 132.717 82.576V88.84C132.717 90.28 131.997 91 130.557 91H122.493C121.125 91 120.333 90.136 120.333 88.552V58.024C120.333 48.952 121.773 39.304 137.973 39.304C154.173 39.304 155.613 48.952 155.613 58.024V88.552ZM143.229 58.024C143.229 54.568 142.725 52.84 137.973 52.84C133.221 52.84 132.717 54.568 132.717 58.024V65.872C132.717 67.24 133.509 68.032 134.877 68.032H141.069C142.509 67.96 143.229 67.24 143.229 65.8V58.024ZM164.618 40.6C163.178 40.672 162.458 41.392 162.458 42.832V88.84C162.458 90.208 163.25 91 164.618 91H180.674C194.21 91 198.674 85.456 198.674 73.648V57.88C198.674 46.072 194.21 40.6 180.674 40.6H164.618ZM177.002 78.616C175.634 78.616 174.842 77.824 174.842 76.456V55.144C174.842 53.704 175.634 52.984 177.002 52.984H180.89C184.346 52.984 186.074 53.416 186.074 57.88C186.074 57.952 186.074 73.648 186.074 73.72C186.074 78.04 184.346 78.616 180.89 78.616H177.002ZM206.866 40.6C205.498 40.6 204.706 41.32 204.706 42.76V74.8C204.706 79.552 205.714 92.296 222.778 92.296C239.842 92.296 240.85 79.552 240.85 74.8V42.76C240.85 41.32 240.13 40.6 238.69 40.6H230.626C229.258 40.6 228.466 41.32 228.466 42.76V70.984C228.466 76.528 228.106 79.912 222.778 79.912C217.45 79.912 217.09 76.528 217.09 70.984V42.76C217.09 41.32 216.37 40.6 214.93 40.6H206.866ZM257.831 40.6C259.271 40.6 259.991 41.32 259.991 42.76V76.456C259.991 77.824 260.783 78.616 262.151 78.616H278.207C279.647 78.616 280.367 79.336 280.367 80.776V88.84C280.367 90.28 279.647 91 278.207 91H249.767C248.399 91 247.607 90.208 247.607 88.84V42.76C247.607 41.32 248.399 40.6 249.767 40.6H257.831ZM284.802 55.144C284.802 53.704 284.082 52.984 282.642 52.984H272.562C271.194 52.984 270.402 52.192 270.402 50.824V42.76C270.402 41.32 271.194 40.6 272.562 40.6L309.426 40.6C310.866 40.6 311.586 41.32 311.586 42.76V50.824C311.586 52.192 310.866 52.984 309.426 52.984H299.346C297.978 52.984 297.186 53.704 297.186 55.144V88.84C297.186 90.208 296.466 91 295.026 91H286.962C285.594 91 284.802 90.208 284.802 88.84V55.144ZM325.972 40.6C327.412 40.6 328.132 41.32 328.132 42.76V88.84C328.132 90.208 327.412 91 325.972 91H318.052C316.684 91 315.892 90.208 315.892 88.84V42.76C315.892 41.32 316.684 40.6 318.052 40.6H325.972ZM348.042 40.6C349.266 40.6 350.058 41.104 350.562 42.256L360.354 66.232C360.642 66.88 361.218 66.736 361.218 66.016V42.76C361.218 41.32 362.01 40.6 363.378 40.6H371.442C372.882 40.6 373.602 41.32 373.602 42.76V88.84C373.602 90.208 372.882 91 371.442 91H360.858C359.634 91 358.842 90.496 358.338 89.344L348.546 65.368C348.258 64.72 347.682 64.864 347.682 65.584V88.84C347.682 90.208 346.962 91 345.522 91H337.458C336.09 91 335.298 90.208 335.298 88.84V42.76C335.298 41.32 336.09 40.6 337.458 40.6H348.042ZM380.07 74.8C380.07 79.552 381.078 92.296 398.142 92.296C415.206 92.296 416.214 79.552 416.214 74.8V65.08C416.214 63.64 415.494 62.92 414.054 62.92H399.654C398.286 62.92 397.494 63.64 397.494 65.08V70.84C397.494 72.208 398.286 73 399.654 73H403.83C403.83 76.528 403.47 79.912 398.142 79.912C392.814 79.912 392.454 76.528 392.454 70.984V60.616C392.454 55.072 392.814 51.688 398.142 51.688C402.246 51.688 403.47 53.704 403.758 57.16C403.902 58.672 404.694 59.32 406.134 59.032L414.27 57.232C415.566 56.944 416.214 56.152 416.142 54.856C415.782 49.24 413.262 39.304 398.142 39.304C381.078 39.304 380.07 52.048 380.07 56.8V74.8ZM126.718 121.604C127.578 121.604 128.008 122.034 128.008 122.894V127.71C128.008 128.527 127.578 129 126.718 129H121.902C121.085 129 120.612 128.527 120.612 127.71V122.894C120.612 122.034 121.085 121.604 121.902 121.604H126.718ZM132.536 98.9C131.676 98.943 131.246 99.373 131.246 100.233V127.71C131.246 128.527 131.719 129 132.536 129H142.125C150.209 129 152.875 125.689 152.875 118.637V109.22C152.875 102.168 150.209 98.9 142.125 98.9H132.536ZM139.932 121.604C139.115 121.604 138.642 121.131 138.642 120.314V107.586C138.642 106.726 139.115 106.296 139.932 106.296H142.254C144.318 106.296 145.35 106.554 145.35 109.22C145.35 109.263 145.35 118.637 145.35 118.68C145.35 121.26 144.318 121.604 142.254 121.604H139.932ZM176.085 98.9C176.945 98.9 177.375 99.33 177.375 100.19V105.006C177.375 105.823 176.945 106.296 176.085 106.296H165.679C164.862 106.296 164.389 106.726 164.389 107.586V108.962C164.389 109.779 164.862 110.252 165.679 110.252H172.344C173.204 110.252 173.634 110.682 173.634 111.542V116.358C173.634 117.175 173.204 117.648 172.344 117.648H165.679C164.862 117.648 164.389 118.078 164.389 118.938V120.314C164.389 121.131 164.862 121.604 165.679 121.604H176.085C176.945 121.604 177.375 122.034 177.375 122.894V127.71C177.375 128.57 176.945 129 176.085 129H158.025C157.208 129 156.735 128.527 156.735 127.71V100.19C156.735 99.33 157.208 98.9 158.025 98.9H176.085ZM185.53 98.9C186.304 98.9 186.777 99.287 186.949 100.018L190.733 116.53C190.819 116.917 191.163 116.917 191.249 116.53L195.033 100.018C195.205 99.287 195.678 98.9 196.452 98.9H201.569C202.472 98.9 202.902 99.416 202.687 100.319L196.409 127.882C196.237 128.613 195.764 129 194.99 129H186.992C186.218 129 185.745 128.613 185.573 127.882L179.295 100.319C179.08 99.416 179.51 98.9 180.413 98.9H185.53Z" fill="white"/>
<mask id="mask0" mask-type="alpha" maskUnits="userSpaceOnUse" x="0" y="0" width="169" height="169">
<circle cx="84.5" cy="84.5" r="84.5" fill="#103B5C"/>
</mask>
<g mask="url(#mask0)">
<rect x="60" y="124" width="14" height="137" fill="#D02F95"/>
<rect x="88" y="124" width="14" height="137" fill="#EBEB47"/>
<rect x="74" y="124" width="14" height="137" fill="#2FCAD0"/>
</g>
<path d="M40.5596 118H121.44C125.477 118 127.85 113.464 125.547 110.148L107.492 84.148C106.557 82.8025 105.023 82 103.385 82H58.6152C56.977 82 55.4427 82.8025 54.5083 84.148L36.4528 110.148C34.1503 113.464 36.523 118 40.5596 118Z" fill="#C4C4C4"/>
<g filter="url(#filter0_d)">
<path fill-rule="evenodd" clip-rule="evenodd" d="M81 25C106 25 106 84.6114 106 84.6114V127C106 129.209 104.209 131 102 131H60C57.7909 131 56 129.209 56 127V84.6114C56 84.6114 56 25 81 25ZM81 75C87.0751 75 92 70.0751 92 64C92 57.9249 87.0751 53 81 53C74.9249 53 70 57.9249 70 64C70 70.0751 74.9249 75 81 75Z" fill="white"/>
</g>
</g>
<defs>
<filter id="filter0_d" x="52" y="25" width="58" height="114" filterUnits="userSpaceOnUse" color-interpolation-filters="sRGB">
<feFlood flood-opacity="0" result="BackgroundImageFix"/>
<feColorMatrix in="SourceAlpha" type="matrix" values="0 0 0 0 0 0 0 0 0 0 0 0 0 0 0 0 0 0 127 0"/>
<feOffset dy="4"/>
<feGaussianBlur stdDeviation="2"/>
<feColorMatrix type="matrix" values="0 0 0 0 0 0 0 0 0 0 0 0 0 0 0 0 0 0 0.25 0"/>
<feBlend mode="normal" in2="BackgroundImageFix" result="effect1_dropShadow"/>
<feBlend mode="normal" in="SourceGraphic" in2="effect1_dropShadow" result="shape"/>
</filter>
<clipPath id="clip0">
<rect width="600" height="300" fill="white" transform="translate(-69 -43)"/>
</clipPath>
</defs>
</svg>
